<?xml version="1.0" encoding="UTF-8"?>
<svg width="75px" height="25px" viewBox="0 0 75 25" version="1.1" xmlns="http://www.w3.org/2000/svg" xmlns:xlink="http://www.w3.org/1999/xlink">
    <!-- Generator: Sketch 63 (92445) - https://sketch.com -->
    <title>Slice</title>
    <desc>Created with Sketch.</desc>
    <g id="Symbols" stroke="none" stroke-width="1" fill="none" fill-rule="evenodd">
        <g id="feature1">
            <polygon id="Path" points="0 0 25 0 25 25 0 25"></polygon>
            <path d="M21.443,4.371 L19.005,4.371 C19.014,4.101 19.019,3.83 19.019,3.557 C19.019,3.249 18.769,3 18.462,3 L6.538,3 C6.23,3 5.981,3.25 5.981,3.557 C5.981,3.83 5.986,4.101 5.995,4.371 L3.557,4.371 C3.249,4.371 3,4.621 3,4.928 C3,7.422 3.652,9.775 4.835,11.554 C6.005,13.313 7.564,14.321 9.247,14.419 C9.629,14.835 10.033,15.173 10.453,15.432 L10.453,17.906 L9.519,17.906 C8.39,17.906 7.472,18.824 7.472,19.953 L7.472,20.887 L7.432,20.887 C7.125,20.887 6.875,21.136 6.875,21.443 C6.875,21.751 7.125,22 7.432,22 L17.568,22 C17.875,22 18.125,21.75 18.125,21.443 C18.125,21.136 17.875,20.887 17.568,20.887 L17.528,20.887 L17.528,19.953 C17.528,18.824 16.61,17.906 15.481,17.906 L14.547,17.906 L14.547,15.432 C14.967,15.173 15.371,14.835 15.753,14.419 C17.436,14.321 18.994,13.313 20.165,11.554 C21.348,9.775 22,7.422 22,4.928 C22,4.621 21.75,4.371 21.443,4.371 Z M5.406,10.698 C4.562,9.46 4.072,8.142 4,6 L5.583,6 C5.748,8.634 6.59,11.151 8.02,12.966 C7.261,12.604 6.13,11.757 5.406,10.698 Z M19.633,10.65 C19.041,11.76 17.833,12.67 17.073,13.033 C18.344,10.872 19.253,8.633 19.417,6 L21,6 C20.928,8.142 20.324,9.354 19.633,10.65 L19.633,10.65 Z" id="Shape" fill="#FFFFFF" fill-rule="nonzero" opacity="0.8"></path>
        </g>
        <g id="feature2" transform="translate(25.000000, 0.000000)">
            <polygon id="Path" points="0 0 25 0 25 25 0 25"></polygon>
            <path d="M24.987,15.832 C24.985,15.742 24.967,15.653 24.935,15.568 L21.572,8.272 C21.462,8.005 21.179,7.832 20.868,7.84 L14.742,7.84 C14.504,7.21 13.966,6.715 13.282,6.496 L13.282,4 L11.718,4 L11.718,6.472 C11.015,6.693 10.458,7.196 10.206,7.84 L4.132,7.84 C3.822,7.831 3.539,8.005 3.428,8.272 L0.065,15.568 C0.033,15.653 0.015,15.742 0.013,15.832 C-0.168,17.932 1.535,19.772 3.817,19.938 C6.099,20.105 8.096,18.538 8.277,16.437 C8.294,16.235 8.294,16.033 8.277,15.832 C8.275,15.742 8.257,15.653 8.225,15.568 L5.33,9.28 L10.179,9.28 C10.423,9.942 10.994,10.458 11.717,10.672 L11.717,22 L13.281,22 L13.281,10.672 C13.981,10.439 14.527,9.927 14.767,9.28 L19.668,9.28 L16.774,15.568 C16.742,15.653 16.724,15.742 16.722,15.832 C16.541,17.932 18.244,19.772 20.526,19.938 C22.808,20.105 24.805,18.538 24.986,16.437 C25.003,16.235 25.003,16.033 24.986,15.832 L24.987,15.832 Z M6,16 L2,16 L3.988,11 L6,16 Z M19,16 L21.012,11 L23,16 L19,16 Z" id="Shape" fill="#FFFFFF" fill-rule="nonzero" opacity="0.799"></path>
        </g>
        <g id="feature3" transform="translate(50.000000, 0.000000)">
            <polygon id="Path" points="0.5 0.5 24.5 0.5 24.5 24.5 0.5 24.5"></polygon>
            <path d="M16.621,22.538 C15.631,23.173 12.757,24.591 8.317,21.998 C3.877,19.406 5.01,13.328 5.496,10.376 C5.776,8.671 6.21,6.745 6.677,5.333 C7.134,3.955 7.739,3.778 8.317,3.887 C9.045,4.024 8.98,5.537 8.12,8.426 C9.666,5.172 10.637,3.218 11.033,2.565 C11.627,1.585 12.07,1.316 12.757,1.616 C13.444,1.916 13.237,2.763 12.597,4.394 C12.169,5.482 11.647,6.826 11.033,8.426 C13.206,4.886 14.511,2.881 14.949,2.41 C15.605,1.704 17.285,1.662 16.621,3.661 C16.179,4.994 15.027,7.232 13.167,10.376 C14.682,9.796 16.181,10.029 17.665,11.075 C19.891,12.643 19.765,15.059 18.988,15.562 C18.211,16.064 17.475,15.604 17.048,14.678 C16.621,13.752 14.678,11.957 12.757,13.22 C10.835,14.483 10.364,18.43 12.757,19.27 C15.149,20.11 16.643,18.783 17.048,18.096 C17.453,17.408 18.044,16.038 19.297,16.426 C20.549,16.816 19.858,18.823 19.297,19.66 C18.736,20.497 17.61,21.902 16.621,22.538 L16.621,22.538 Z" id="Path" fill="#FFFFFF" fill-rule="nonzero" opacity="0.8"></path>
        </g>
    </g>
</svg>