<?xml version="1.0" encoding="UTF-8"?>
<svg width="132px" height="66px" viewBox="0 0 132 66" version="1.1" xmlns="http://www.w3.org/2000/svg" xmlns:xlink="http://www.w3.org/1999/xlink">
    <!-- Generator: Sketch 63 (92445) - https://sketch.com -->
    <title>sprite icon</title>
    <desc>Created with Sketch.</desc>
    <g id="Symbols" stroke="none" stroke-width="1" fill="none" fill-rule="evenodd">
        <g id="sprite-icon">
            <g id="Group-6">
                <g id="Group-2">
                    <g id="icon_search" transform="translate(22.000000, 0.000000)">
                        <rect id="矩形" x="0" y="0" width="22" height="22"></rect>
                        <g id="编组" transform="translate(3.142857, 3.142857)" stroke="#999999">
                            <circle id="椭圆形" stroke-width="1.3" cx="6.28571429" cy="6.28571429" r="6.28571429"></circle>
                            <line x1="11" y1="11" x2="15.7142857" y2="15.7142857" id="直线-2" stroke-width="2" stroke-linecap="round" stroke-linejoin="round"></line>
                        </g>
                    </g>
                    <g id="Icon_Search">
                        <rect id="矩形" x="0" y="0" width="22" height="22"></rect>
                        <g id="编组" transform="translate(2.619048, 2.619048)" stroke="#00726A">
                            <circle id="椭圆形" stroke-width="1.5" cx="6.80952381" cy="6.80952381" r="6.80952381"></circle>
                            <line x1="11.9428571" y1="11.9428571" x2="16.7619048" y2="16.7619048" id="直线-2" stroke-width="2.2" stroke-linecap="round" stroke-linejoin="round"></line>
                        </g>
                    </g>
                    <g id="Symbol/Icon/Cancel/19_Default" transform="translate(44.000000, 0.000000)">
                        <rect id="矩形" x="0" y="0" width="22" height="22"></rect>
                        <g id="编组-3" transform="translate(4.052632, 4.052632)" stroke="#979797" stroke-linecap="round" stroke-width="2">
                            <line x1="-5.31612541e-14" y1="-2.33173804e-15" x2="13.3016233" y2="13.3016233" id="直线-2"></line>
                            <line x1="-5.31612541e-14" y1="-2.33173804e-15" x2="13.3016233" y2="13.3016233" id="直线-2备份" transform="translate(6.650812, 6.650812) scale(-1, 1) translate(-6.650812, -6.650812) "></line>
                        </g>
                    </g>
                    <g id="Symbol/Icon/Sure/Primary/12_Default" transform="translate(66.000000, 0.000000)">
                        <rect id="Mask" x="0" y="0" width="22" height="22"></rect>
                        <line x1="2.75" y1="11.9166667" x2="8.25" y2="17.4166667" id="直线-4" stroke="#00726A" stroke-width="3.66666667" stroke-linecap="round" stroke-linejoin="round"></line>
                        <line x1="8.61666667" y1="17.05" x2="18.8833333" y2="6.78333333" id="直线-5" stroke="#00726A" stroke-width="3.66666667" stroke-linecap="round" stroke-linejoin="round"></line>
                    </g>
                    <g id="icon_filter" transform="translate(88.000000, 0.000000)">
                        <g id="Symbol/Icon/Fliter/Primary/19_Default">
                            <rect id="矩形" x="0" y="0" width="22" height="22"></rect>
                            <g id="编组" stroke-width="1" fill-rule="evenodd" transform="translate(1.736842, 2.315789)" stroke="#00726A">
                                <line x1="2.64661654" y1="0.620300752" x2="2.64661654" y2="17.3684211" id="直线-2" stroke-width="1.73684211" stroke-linecap="round" stroke-linejoin="round"></line>
                                <line x1="9.26315789" y1="0.620300752" x2="9.26315789" y2="17.3684211" id="直线-2" stroke-width="1.73684211" stroke-linecap="round" stroke-linejoin="round"></line>
                                <line x1="15.8796992" y1="0.620300752" x2="15.8796992" y2="17.3684211" id="直线-2" stroke-width="1.73684211" stroke-linecap="round" stroke-linejoin="round"></line>
                                <ellipse id="椭圆形" stroke-width="1.50526316" fill="#EEEEEE" cx="15.8796992" cy="14.6963563" rx="1.89398496" ry="1.9194332"></ellipse>
                                <ellipse id="椭圆形" stroke-width="1.50526316" fill="#EEEEEE" cx="9.26315789" cy="9.35222672" rx="1.89398496" ry="1.9194332"></ellipse>
                                <ellipse id="椭圆形" stroke-width="1.50526316" fill="#EEEEEE" cx="2.64661654" cy="4.00809717" rx="1.89398496" ry="1.9194332"></ellipse>
                            </g>
                        </g>
                    </g>
                    <g id="desktop-icon-24-primary" transform="translate(110.000000, 0.000000)">
                        <polygon id="Path" points="0 0 22 0 22 22 0 22"></polygon>
                        <circle id="Oval" stroke="#00726A" stroke-width="1.83333333" stroke-linecap="round" stroke-linejoin="round" cx="11" cy="10.0833333" r="2.75"></circle>
                        <path d="M16.1855833,15.2689167 L12.2961667,19.1583333 C11.9524167,19.5020833 11.48675,19.6955 11.0009167,19.6955 C10.5150833,19.6955 10.0475833,19.503 9.70475,19.1583333 L5.81441667,15.2689167 C2.95075,12.40525 2.95075,7.76141667 5.81441667,4.89775 C8.67808333,2.03408333 13.3219167,2.03408333 16.1855833,4.89775 C19.04925,7.76233333 19.04925,12.40525 16.1855833,15.2689167 Z" id="Path" stroke="#00726A" stroke-width="1.83333333" stroke-linecap="round" stroke-linejoin="round"></path>
                    </g>
                </g>
                <g id="Group-4" transform="translate(0.000000, 44.000000)">
                    <rect id="Desktop/Common/Check-Box/Default" x="0" y="0" width="22" height="22"></rect>
                    <polygon id="Path" fill="#00726A" fill-rule="nonzero" points="32.9600293 17.8619048 26.1858022 20.8474579 26.9321905 13.4828571 22 7.96206593 29.2351795 6.39660073 32.9600293 -5.32907052e-15 36.6848791 6.39660073 43.9200586 7.96206593 38.9878681 13.4828571 39.7342564 20.8474579"></polygon>
                    <path d="M55.8144858,1.78885438 L65.1964518,20.5527864 C65.4434411,21.0467649 65.2432167,21.6474379 64.7492382,21.8944272 C64.6103828,21.9638549 64.4572697,22 64.3020246,22 L45.5380926,22 C44.9858078,22 44.5380926,21.5522847 44.5380926,21 C44.5380926,20.8447549 44.5742377,20.6916418 44.6436654,20.5527864 L54.0256314,1.78885438 C54.2726207,1.29487588 54.8732937,1.09465154 55.3672722,1.34164079 C55.5607996,1.43840449 55.7177221,1.59532698 55.8144858,1.78885438 Z" id="Triangle" fill="#FFFFFF" opacity="0.898739769" transform="translate(54.920059, 11.000000) rotate(-270.000000) translate(-54.920059, -11.000000) "></path>
                    <g id="21_Default" transform="translate(65.920059, 0.000000)">
                        <rect id="Mask" x="0" y="0" width="22" height="22"></rect>
                        <circle id="Oval" stroke="#00726A" cx="11" cy="11" r="10.4761905"></circle>
                        <rect id="Rectangle" fill="#00726A" fill-rule="nonzero" x="7.33333333" y="2.61904762" width="7.33333333" height="8.9047619" rx="3.5"></rect>
                        <path d="M11,13.0952381 C14.6207862,13.0952381 17.8515509,14.765119 19.9641689,17.3767556 C17.969381,20.1754232 14.6977669,22 11,22 C7.3022331,22 4.03061895,20.1754232 2.03634008,17.377452 C4.1484491,14.765119 7.37921377,13.0952381 11,13.0952381 Z" id="Combined-Shape" fill="#00726A" fill-rule="nonzero"></path>
                    </g>
                    <g id="Icon-Color" transform="translate(87.920059, 0.000000)">
                        <path d="M11.6627471,12.9296296 L11.6627471,12.537037 C11.6627471,11.8111111 11.9168574,11.4481481 12.830281,10.8777778 C13.7986472,10.262963 14.3,9.48518519 14.3,8.37407407 L14.3,8.35925926 C14.3,6.67777778 13.0019771,5.5 11.0377732,5.5 C8.92934443,5.5 7.73433923,6.77407407 7.7,8.58888889 L7.7,8.6037037 L9.55431842,8.5962963 L9.56805411,8.5962963 C9.60239334,7.75925926 10.1243496,7.21851852 10.9141519,7.21851852 C11.6970864,7.21851852 12.2190427,7.72962963 12.2190427,8.42592593 L12.2190427,8.44074074 C12.2190427,9.13703704 11.9511967,9.5 11.0652445,10.0703704 C10.1174818,10.6703704 9.73975026,11.337037 9.82903226,12.5 L9.84276795,12.9296296 L11.6627471,12.9296296 Z M10.8248699,16.5 C11.5940687,16.5 12.0679501,16.0259259 12.0679501,15.262963 C12.0679501,14.4925926 11.5940687,14.0185185 10.8248699,14.0185185 C10.0556712,14.0185185 9.57492196,14.4925926 9.57492196,15.262963 C9.57492196,16.0259259 10.0556712,16.5 10.8248699,16.5 Z" id="?" fill="#00726A" fill-rule="nonzero"></path>
                        <path d="M11,0.75 C8.16954066,0.75 5.60704066,1.89727033 3.75215549,3.75215549 C1.89727033,5.60704066 0.75,8.16954066 0.75,11 C0.75,13.8304593 1.89727033,16.3929593 3.75215549,18.2478445 C5.60704066,20.1027297 8.16954066,21.25 11,21.25 C13.5024113,21.25 15.7954392,20.3533476 17.5751036,18.8635828 C19.8213045,16.9832782 21.25,14.1585157 21.25,11 C21.25,8.16954066 20.1027297,5.60704066 18.2478445,3.75215549 C16.3929593,1.89727033 13.8304593,0.75 11,0.75 Z" id="Oval" stroke="#00726A" stroke-width="1.5"></path>
                    </g>
                    <g id="symbol-icon-put-away-18-default" transform="translate(109.920059, 0.000000)">
                        <polygon id="Path" points="0 0 22 0 22 22 0 22"></polygon>
                        <g id="Group" stroke-linecap="round" transform="translate(2.444444, 9.777778)" stroke="#666666" stroke-width="2.44444444">
                            <line x1="0.836" y1="0.858" x2="15.5026667" y2="0.858" id="Path" transform="translate(8.169333, 0.858000) scale(-1, 1) translate(-8.169333, -0.858000) "></line>
                        </g>
                    </g>
                </g>
                <g id="Group-3" transform="translate(0.000000, 22.000000)">
                    <g id="Icon/Chevron-Right/18" transform="translate(11.000000, 11.000000) rotate(-90.000000) translate(-11.000000, -11.000000) ">
                        <rect id="矩形" x="3.25665421e-14" y="0" width="22" height="22"></rect>
                        <g id="编组" transform="translate(2.688889, 7.233333)" stroke="#B4B4B4" stroke-linecap="round" stroke-linejoin="round" stroke-width="2">
                            <line x1="0.977777778" y1="0.1" x2="8.31111111" y2="7.43333333" id="直线"></line>
                            <line x1="8.31111111" y1="0.1" x2="15.6444444" y2="7.43333333" id="直线备份" transform="translate(11.977778, 3.766667) scale(-1, 1) translate(-11.977778, -3.766667) "></line>
                        </g>
                    </g>
                    <g id="Symbol/Icon/Chevron-Right/20_Primary" transform="translate(66.000000, 0.000000)">
                        <g id="Icon/Chevron-Right/20">
                            <rect id="矩形" x="0" y="0" width="22" height="22"></rect>
                            <line x1="8.10526316" y1="3.47368421" x2="15.0526316" y2="10.4210526" id="直线" stroke="#00726A" stroke-width="2.8" stroke-linecap="round" stroke-linejoin="round"></line>
                            <line x1="8.10526316" y1="10.4210526" x2="15.0526316" y2="17.3684211" id="直线备份" stroke="#00726A" stroke-width="2.8" stroke-linecap="round" stroke-linejoin="round" transform="translate(11.578947, 13.894737) scale(-1, 1) translate(-11.578947, -13.894737) "></line>
                        </g>
                    </g>
                    <g id="icon-nav" transform="translate(55.000000, 11.000000) scale(-1, 1) translate(-55.000000, -11.000000) translate(44.000000, 0.000000)">
                        <polygon id="Path" points="0 0 22 0 22 22 0 22"></polygon>
                        <line x1="14.9285714" y1="20.8214286" x2="7.85714286" y2="11" id="Path" stroke="#00726A" stroke-width="2" stroke-linecap="round"></line>
                        <line x1="14.9285714" y1="11" x2="7.85714286" y2="1.17857143" id="Path" stroke="#00726A" stroke-width="2" stroke-linecap="round" transform="translate(11.392857, 6.089286) scale(-1, 1) rotate(-180.000000) translate(-11.392857, -6.089286) "></line>
                    </g>
                    <g id="icon_arrow" transform="translate(99.000000, 11.000000) scale(-1, 1) translate(-99.000000, -11.000000) translate(88.000000, 0.000000)">
                        <polygon id="Path" points="0 0 22 0 22 22 0 22"></polygon>
                        <line x1="8.10526316" y1="10.4210526" x2="15.0526316" y2="17.3684211" id="Path" stroke="#FFFFFF" stroke-width="2" stroke-linecap="round" stroke-linejoin="round"></line>
                        <line x1="8.10526316" y1="3.47368421" x2="15.0526316" y2="10.4210526" id="Path" stroke="#FFFFFF" stroke-width="2" stroke-linecap="round" stroke-linejoin="round" transform="translate(11.578947, 6.947368) scale(-1, 1) translate(-11.578947, -6.947368) "></line>
                    </g>
                    <g id="Icon_Chevron-Down_12" transform="translate(33.000000, 11.000000) scale(-1, 1) rotate(90.000000) translate(-33.000000, -11.000000) translate(22.000000, 0.000000)">
                        <rect id="矩形" x="0" y="0" width="22" height="22"></rect>
                        <g id="编组" transform="translate(3.666667, 7.333333)" stroke="#00726A" stroke-linecap="round" stroke-linejoin="round" stroke-width="1.6">
                            <line x1="0" y1="-1.74197077e-14" x2="7.33333333" y2="7.33333333" id="直线"></line>
                            <line x1="7.33333333" y1="-1.74197077e-14" x2="14.6666667" y2="7.33333333" id="直线备份" transform="translate(11.000000, 3.666667) scale(-1, 1) translate(-11.000000, -3.666667) "></line>
                        </g>
                    </g>
                    <g id="symbol-icon-cancel-18-default" transform="translate(110.000000, 0.000000)">
                        <polygon id="Path" points="0 0 22 0 22 22 0 22"></polygon>
                        <g id="Group" stroke-linecap="round" transform="translate(2.444444, 2.444444)" stroke="#00726A" stroke-width="2.44444444">
                            <line x1="8.16933333" y1="0.858" x2="8.16933333" y2="15.5246667" id="Path"></line>
                            <line x1="0.836" y1="8.19133333" x2="15.5026667" y2="8.19133333" id="Path" transform="translate(8.169333, 8.191333) scale(-1, 1) translate(-8.169333, -8.191333) "></line>
                        </g>
                    </g>
                </g>
            </g>
            <line x1="5.5" y1="54.5" x2="9.5" y2="58.5" id="直线" stroke="#FFFFFF" stroke-width="1.8" stroke-linecap="round" stroke-linejoin="round"></line>
            <line x1="9.5" y1="58.5" x2="17.5" y2="50.5" id="直线-2" stroke="#FFFFFF" stroke-width="1.8" stroke-linecap="round" stroke-linejoin="round"></line>
        </g>
    </g>
</svg>