<?xml version="1.0" encoding="UTF-8"?>
<svg width="301px" height="43px" viewBox="0 0 301 43" version="1.1" xmlns="http://www.w3.org/2000/svg" xmlns:xlink="http://www.w3.org/1999/xlink">
    <!-- Generator: Sketch 63 (92445) - https://sketch.com -->
    <title>fiture icon</title>
    <desc>Created with Sketch.</desc>
    <g id="Symbols" stroke="none" stroke-width="1" fill="none" fill-rule="evenodd">
        <g id="fiture-icon">
            <g id="Group-2">
                <g id="life">
                    <polygon id="Path" points="0 0 43 0 43 43 0 43"></polygon>
                    <circle id="Oval" fill="#9B287D" fill-rule="nonzero" cx="21.5" cy="21.5" r="21.5"></circle>
                    <path d="M24.536,14 C27.554,14 30,16.422 30,19.41 C30,21.147 29.174,22.692 27.89,23.682 L22.214,29.469 C21.827,29.863 21.194,29.869 20.8,29.483 L20.786,29.469 L15.11,23.682 C13.826,22.692 13,21.147 13,19.41 C13,16.422 15.446,14 18.464,14 C19.588,14 20.632,14.336 21.501,14.912 C22.368,14.336 23.412,14 24.536,14 L24.536,14 Z" id="Path" fill-opacity="0.602" fill="#FFFFFF" fill-rule="nonzero"></path>
                </g>
                <g id="investment" transform="translate(258.000000, 0.000000)">
                    <circle id="Oval" fill="#74BA42" fill-rule="nonzero" cx="21.5" cy="21.5" r="21.5"></circle>
                    <polygon id="Path" points="10 11 32 11 32 33 10 33"></polygon>
                    <path d="M11.643,28.375 L19.357,19.625 M19.6,19.6 L24.4,24.4 M24.583,24.389 L30.417,14.611 M25.6,15.5 L30.4,14.5 M30.5,15 L31.5,20" id="Shape" stroke="#FFFFFF" stroke-width="3" stroke-linecap="round" stroke-linejoin="round"></path>
                </g>
            </g>
            <g id="health" transform="translate(43.000000, 0.000000)">
                <circle id="Oval" fill="#6464B6" fill-rule="nonzero" cx="21.5" cy="21.5" r="21.5"></circle>
                <polygon id="Path" points="11 11 33 11 33 33 11 33"></polygon>
                <path d="M21.5,12 C22.374,12 23.083,12.709 23.083,13.583 L23.083,20.142 L29.417,20.142 C30.291,20.142 31,20.852 31,21.726 C31,22.601 30.291,23.31 29.417,23.31 L23.083,23.309 L23.083,29.417 C23.083,30.291 22.374,31 21.5,31 C20.626,31 19.917,30.291 19.917,29.417 L19.916,23.309 L13.583,23.309 C12.709,23.309 12,22.601 12,21.726 C12,20.852 12.709,20.143 13.583,20.143 L19.916,20.142 L19.916,13.583 C19.916,12.709 20.626,12 21.5,12 Z" id="Path" fill="#FFFFFF" fill-rule="nonzero"></path>
                <circle id="Oval" fill="#D02D5C" fill-rule="nonzero" cx="21.5" cy="21.5" r="21.5"></circle>
                <polygon id="Path" points="11 11 33 11 33 33 11 33"></polygon>
                <path d="M21.5,12 C22.374,12 23.083,12.709 23.083,13.583 L23.083,20.142 L29.417,20.142 C30.291,20.142 31,20.852 31,21.726 C31,22.601 30.291,23.31 29.417,23.31 L23.083,23.309 L23.083,29.417 C23.083,30.291 22.374,31 21.5,31 C20.626,31 19.917,30.291 19.917,29.417 L19.916,23.309 L13.583,23.309 C12.709,23.309 12,22.601 12,21.726 C12,20.852 12.709,20.143 13.583,20.143 L19.916,20.142 L19.916,13.583 C19.916,12.709 20.626,12 21.5,12 Z" id="Path" fill="#FFFFFF" fill-rule="nonzero" opacity="0.703"></path>
            </g>
            <g id="accident" transform="translate(86.000000, 0.000000)">
                <g id="Group">
                    <circle id="Oval" fill="#E36B2A" fill-rule="nonzero" cx="21.5" cy="21.5" r="21.5"></circle>
                    <polygon id="Path" points="10.521 10.521 32.478 10.521 32.478 32.478 10.521 32.478"></polygon>
                </g>
                <path d="M28.162,21.53 C26.325,22.483 24.438,23.294 22.525,24.027 C22.187,22.816 21.995,21.793 21.715,20.339 C21.598,19.735 21.342,19.192 20.98,18.787 L24.157,13.537 C25.15,11.897 22.977,9.982 21.977,11.634 L17.629,18.818 C17.571,18.915 17.524,19.012 17.487,19.109 C17.11,19.641 16.909,20.316 17.04,21 C17.378,22.746 17.722,24.5 18.215,26.2 C18.397,26.827 18.822,27.288 19.336,27.558 C19.383,27.603 19.432,27.647 19.486,27.688 C22.064,29.644 24.743,31.415 27.586,32.853 C29.212,33.675 30.279,30.825 28.652,30.003 C26.864,29.101 25.152,28.058 23.49,26.917 C25.423,26.177 27.329,25.361 29.185,24.399 C30.799,23.56 29.782,20.689 28.162,21.53 Z M17.361,16.85 C18.383,15.545 18.154,13.66 16.849,12.638 C15.544,11.617 13.659,11.846 12.639,13.15 C11.616,14.455 11.846,16.34 13.15,17.362 C14.455,18.384 16.34,18.154 17.361,16.849 L17.361,16.85 Z" id="Shape" fill="#FFFFFF" fill-rule="nonzero" opacity="0.702"></path>
            </g>
            <g id="wheelchair" transform="translate(129.000000, 0.000000)">
                <circle id="Oval" fill="#EC913C" fill-rule="nonzero" cx="21.5" cy="21.5" r="21.5"></circle>
                <polygon id="Path" points="11 11 33 11 33 33 11 33"></polygon>
                <path d="M31.237,27.424 C30.213,28.297 29.077,29.014 27.867,29.56 L26.783,26.446 L28.323,26.446 L28.323,25.86 C28.323,24.013 26.818,22.51 24.969,22.51 L19.557,22.51 L19.202,21.337 L24.41,21.337 L24.41,20.163 L18.848,20.163 L17.009,14.084 L16.999,14.052 L16.986,14.021 C16.624,13.187 15.956,12.548 15.106,12.223 C14.256,11.899 13.333,11.929 12.506,12.309 L12.045,12.52 L16.133,26.446 L17.326,26.446 L16.237,29.607 C14.989,29.055 13.817,28.322 12.763,27.424 L12,28.316 C14.785,30.692 18.337,32 22,32 C25.663,32 29.215,30.692 32,28.316 L31.237,27.424 Z M22.006,30.742 C20.579,30.742 19.172,30.482 17.843,29.984 L18.946,26.531 L25.161,26.531 L26.264,29.947 C24.907,30.468 23.467,30.742 22.006,30.742 L22.006,30.742 Z" id="Shape" fill="#FFFFFF" fill-rule="nonzero" opacity="0.747"></path>
            </g>
            <g id="tab" transform="translate(172.000000, 0.000000)">
                <path d="M30,25.728 L30,28.287 C30.003,29.229 29.24,29.996 28.297,30 C28.243,30 28.19,29.998 28.136,29.993 C25.506,29.708 22.979,28.811 20.76,27.374 C18.695,26.064 16.944,24.317 15.63,22.255 C14.186,20.03 13.288,17.496 13.007,14.859 C12.922,13.921 13.615,13.091 14.556,13.006 C14.606,13.003 14.657,12.9999244 14.708,12.9999244 L17.272,12.9999244 C18.13,12.992 18.862,13.62 18.982,14.467 C19.09,15.287 19.292,16.09 19.58,16.864 C19.815,17.488 19.665,18.191 19.196,18.664 L18.11,19.747 C19.327,21.883 21.099,23.652 23.239,24.866 L24.324,23.783 C24.799,23.314 25.503,23.164 26.128,23.399 C26.903,23.688 27.708,23.888 28.53,23.996 C29.389,24.117 30.021,24.862 30,25.728 L30,25.728 Z" id="Path" fill="#FFFFFF" fill-rule="nonzero"></path>
                <g id="Group" fill="#FACA23" fill-rule="nonzero">
                    <circle id="Oval" cx="21.5" cy="21.5" r="21.5"></circle>
                </g>
                <g id="Group" transform="translate(11.000000, 9.000000)">
                    <polygon id="Path" points="0 2.018 22.361 2.018 22.361 24.454 0 24.454"></polygon>
                    <path d="M12.7620862,2.34603572 C12.8950862,2.44903572 13.0140862,2.56903572 13.1170862,2.70303572 L16.6730862,7.31803572 L16.6560862,7.31803572 C16.8690862,7.63603572 16.9940862,8.01803572 16.9940862,8.42903572 L16.9940862,19.3790357 C16.9940862,20.4840357 16.0980862,21.3790357 14.9940862,21.3790357 L8.00008623,21.3790357 C6.89508623,21.3790357 6.00008623,20.4840357 6.00008623,19.3790357 L6.00008623,8.43003572 C6.00008623,8.06503572 6.09808623,7.72203572 6.27008623,7.42703572 L6.27408623,7.41803572 C6.36408623,7.26503572 6.47408623,7.12603572 6.59908623,7.00303572 L9.95508623,2.69503572 C10.6350862,1.82503572 11.8910862,1.66803572 12.7620862,2.34703572 L12.7620862,2.34603572 Z M11.4970862,7.65203572 C10.2320862,7.65203572 9.20708623,8.68203572 9.20708623,9.95203572 C9.20708623,11.2240357 10.2320862,12.2540357 11.4970862,12.2540357 C12.7620862,12.2540357 13.7870862,11.2240357 13.7870862,9.95303572 C13.7870862,8.68303572 12.7620862,7.65203572 11.4970862,7.65203572 L11.4970862,7.65203572 Z" id="Shape" fill="#FFFFFF" fill-rule="nonzero" opacity="0.851" transform="translate(11.497086, 11.651914) rotate(45.000000) translate(-11.497086, -11.651914) "></path>
                </g>
            </g>
            <g id="team" transform="translate(215.000000, 0.000000)">
                <circle id="Oval" fill="#D2CE27" fill-rule="nonzero" cx="21.5" cy="21.5" r="21.5"></circle>
                <polygon id="Path" points="11 11 33 11 33 33 11 33"></polygon>
                <circle id="Oval" fill="#FFFFFF" fill-rule="nonzero" cx="21.5" cy="15.5" r="2.5"></circle>
                <path d="M24.995,23.84 L24.465,19.982 C24.405,19.422 23.906,19 23.305,19 L22.666,19 C22.511,19 22.363,19.058 22.253,19.16 L21.5,19.864 L20.746,19.159 C20.636,19.058 20.488,19 20.333,19 L19.695,19 C19.093,19 18.594,19.422 18.535,19.968 L18.005,23.84 C17.984,23.995 18.035,24.152 18.145,24.27 C18.257,24.387 18.415,24.455 18.583,24.455 L19.213,24.455 L19.701,30.018 C19.759,30.577 20.26,31 20.861,31 L22.139,31 C22.741,31 23.24,30.577 23.301,30.008 L23.787,24.455 L24.417,24.455 C24.584,24.455 24.743,24.387 24.854,24.269 C24.966,24.152 25.017,23.995 24.994,23.839 L24.995,23.84 Z" id="Path" fill="#FFFFFF" fill-rule="nonzero"></path>
                <circle id="Oval" fill="#FFFFFF" fill-rule="nonzero" cx="15.5" cy="15.5" r="2.5"></circle>
                <path d="M27.5,13 C26.121,13 25,14.121 25,15.5 C25,16.879 26.121,18 27.5,18 C28.878,18 30,16.879 30,15.5 C30,14.121 28.878,13 27.5,13 Z M30.995,23.88 L30.435,19.991 C30.373,19.426 29.847,19 29.212,19 L28.537,19 C28.373,19 28.217,19.058 28.101,19.16 L27.306,19.871 L26.511,19.161 C26.395,19.058 26.239,19 26.076,19 L25.401,19 C25.325,19 25.256,19.024 25.183,19.036 C25.343,19.287 25.467,19.559 25.503,19.863 L26.061,23.74 C26.131,24.212 25.965,24.687 25.611,25.045 C25.443,25.216 25.229,25.337 25,25.432 L25.409,29.01 C25.472,29.574 25.999,30 26.634,30 L27.982,30 C28.617,30 29.144,29.573 29.208,29 L29.72,24.5 L30.384,24.5 C30.561,24.5 30.729,24.432 30.846,24.313 C30.964,24.195 31.018,24.037 30.995,23.88 L30.995,23.88 Z M17.382,25.039 C17.032,24.686 16.87,24.212 16.937,23.742 L17.497,19.836 C17.529,19.543 17.649,19.279 17.803,19.036 C17.734,19.024 17.669,19 17.596,19 L16.922,19 C16.758,19 16.602,19.058 16.486,19.16 L15.692,19.871 L14.897,19.161 C14.781,19.058 14.625,19 14.462,19 L13.788,19 C13.153,19 12.626,19.426 12.565,19.976 L12.005,23.881 C11.983,24.037 12.037,24.195 12.154,24.313 C12.271,24.432 12.439,24.5 12.615,24.5 L13.28,24.5 L13.794,29.01 C13.856,29.573 14.384,30 15.018,30 L16.366,30 C17.001,30 17.527,29.573 17.591,29 L18,25.43 C17.77,25.335 17.555,25.213 17.382,25.039 Z" id="Shape" fill="#FFFFFF" fill-rule="nonzero"></path>
            </g>
        </g>
    </g>
</svg>